<svg width="54" height="50" viewBox="0 0 54 50" fill="none" xmlns="http://www.w3.org/2000/svg">
<rect width="50" height="50" rx="25" fill="white"/>
<path d="M3.368 20.408C3.368 20.132 3.428 19.874 3.548 19.634C4.664 19.718 5.408 19.76 5.78 19.76C6.296 19.76 6.872 19.724 7.508 19.652L7.778 19.634C7.778 19.91 7.718 20.168 7.598 20.408C6.998 20.516 6.53 20.714 6.194 21.002C5.87 23.762 5.612 27.068 5.42 30.92H10.37C10.598 30.584 10.76 30.152 10.856 29.624L10.892 29.354C11.252 29.426 11.546 29.588 11.774 29.84C11.522 30.464 11.372 31.184 11.324 32H4.178L2.468 32.126C2.468 31.85 2.528 31.592 2.648 31.352C3.128 31.208 3.536 30.992 3.872 30.704C4.172 28.1 4.448 24.746 4.7 20.642L3.368 20.408ZM12.5278 27.662C12.5278 25.982 12.8998 24.458 13.6438 23.09C14.4598 21.59 15.5818 20.552 17.0098 19.976C17.7898 19.652 18.6358 19.49 19.5478 19.49C20.8198 19.49 21.8218 19.934 22.5538 20.822C23.2978 21.698 23.6698 22.814 23.6698 24.17C23.6698 26.258 23.0998 28.112 21.9598 29.732C21.4078 30.524 20.6698 31.16 19.7458 31.64C18.8338 32.12 17.7718 32.36 16.5598 32.36C15.3478 32.36 14.3698 31.916 13.6258 31.028C12.8938 30.14 12.5278 29.018 12.5278 27.662ZM17.2078 20.75C16.1998 21.29 15.4198 22.118 14.8678 23.234C14.3158 24.338 14.0398 25.454 14.0398 26.582C14.0398 27.698 14.2498 28.652 14.6698 29.444C15.1018 30.224 15.7258 30.716 16.5418 30.92H19.0438C20.0518 30.38 20.8198 29.576 21.3477 28.508C21.8878 27.44 22.1578 26.348 22.1578 25.232C22.1578 24.116 21.9478 23.156 21.5278 22.352C21.1198 21.548 20.5198 21.014 19.7278 20.75H17.2078ZM34.0652 31.334C32.1572 32.018 30.5492 32.36 29.2412 32.36C27.9452 32.36 26.9492 31.928 26.2532 31.064C25.5572 30.188 25.2092 29.054 25.2092 27.662C25.2092 25.994 25.5872 24.464 26.3432 23.072C27.1592 21.572 28.2812 20.528 29.7092 19.94C30.4892 19.628 31.2572 19.472 32.0132 19.472C32.7812 19.472 33.4892 19.592 34.1372 19.832C34.7852 20.06 35.1752 20.306 35.3072 20.57C35.0552 21.026 34.8452 21.62 34.6772 22.352L34.6052 22.712C34.3052 22.82 33.9812 22.874 33.6332 22.874C33.7292 22.61 33.7772 22.304 33.7772 21.956C33.7772 21.368 33.6212 20.966 33.3092 20.75H29.8892C28.8812 21.29 28.1012 22.118 27.5492 23.234C26.9972 24.338 26.7212 25.454 26.7212 26.582C26.7212 27.698 26.9432 28.652 27.3872 29.444C27.8312 30.224 28.4612 30.716 29.2772 30.92H32.6972C32.9252 29.912 33.0512 28.91 33.0752 27.914L31.7072 27.608C31.7072 27.332 31.7672 27.074 31.8872 26.834C32.6432 26.918 33.2552 26.96 33.7232 26.96L35.6132 26.834C35.6132 27.11 35.5532 27.368 35.4332 27.608C35.0612 27.68 34.7132 27.8 34.3892 27.968C34.2452 28.772 34.1372 29.894 34.0652 31.334ZM36.6801 27.662C36.6801 25.982 37.0521 24.458 37.7961 23.09C38.6121 21.59 39.7341 20.552 41.1621 19.976C41.9421 19.652 42.7881 19.49 43.7001 19.49C44.9721 19.49 45.9741 19.934 46.7061 20.822C47.4501 21.698 47.8221 22.814 47.8221 24.17C47.8221 26.258 47.2521 28.112 46.1121 29.732C45.5601 30.524 44.8221 31.16 43.8981 31.64C42.9861 32.12 41.9241 32.36 40.7121 32.36C39.5001 32.36 38.5221 31.916 37.7781 31.028C37.0461 30.14 36.6801 29.018 36.6801 27.662ZM41.3601 20.75C40.3521 21.29 39.5721 22.118 39.0201 23.234C38.4681 24.338 38.1921 25.454 38.1921 26.582C38.1921 27.698 38.4021 28.652 38.8221 29.444C39.2541 30.224 39.8781 30.716 40.6941 30.92H43.1961C44.2041 30.38 44.9721 29.576 45.5001 28.508C46.0401 27.44 46.3101 26.348 46.3101 25.232C46.3101 24.116 46.1001 23.156 45.6801 22.352C45.2721 21.548 44.6721 21.014 43.8801 20.75H41.3601Z" fill="black"/>
</svg>
