<svg width="180" height="21" viewBox="0 0 180 21" fill="none" xmlns="http://www.w3.org/2000/svg">
<rect x="111" width="68.7824" height="21" rx="10.5" fill="#FB8500"/>
<path d="M123.392 7.978C123.14 7.84 122.882 7.726 122.618 7.636C122.36 7.546 122.117 7.501 121.889 7.501C121.607 7.501 121.385 7.558 121.223 7.672C121.061 7.786 120.98 7.957 120.98 8.185C120.98 8.341 121.04 8.482 121.16 8.608C121.286 8.728 121.445 8.836 121.637 8.932C121.835 9.028 122.039 9.115 122.249 9.193C122.441 9.265 122.63 9.352 122.816 9.454C123.008 9.55 123.179 9.673 123.329 9.823C123.479 9.967 123.599 10.15 123.689 10.372C123.779 10.588 123.824 10.855 123.824 11.173C123.824 11.509 123.737 11.821 123.563 12.109C123.389 12.397 123.134 12.631 122.798 12.811C122.462 12.985 122.048 13.072 121.556 13.072C121.304 13.072 121.046 13.048 120.782 13C120.524 12.946 120.269 12.868 120.017 12.766C119.765 12.658 119.522 12.523 119.288 12.361L119.864 11.344C120.02 11.458 120.188 11.56 120.368 11.65C120.554 11.734 120.74 11.8 120.926 11.848C121.112 11.896 121.283 11.92 121.439 11.92C121.595 11.92 121.751 11.899 121.907 11.857C122.069 11.809 122.201 11.731 122.303 11.623C122.411 11.515 122.465 11.365 122.465 11.173C122.465 11.041 122.42 10.921 122.33 10.813C122.246 10.705 122.129 10.606 121.979 10.516C121.835 10.426 121.676 10.348 121.502 10.282C121.298 10.204 121.088 10.114 120.872 10.012C120.656 9.91 120.452 9.787 120.26 9.643C120.074 9.493 119.921 9.31 119.801 9.094C119.687 8.872 119.63 8.602 119.63 8.284C119.63 7.9 119.714 7.567 119.882 7.285C120.056 7.003 120.299 6.781 120.611 6.619C120.923 6.451 121.283 6.358 121.691 6.34C122.225 6.34 122.657 6.403 122.987 6.529C123.323 6.655 123.623 6.805 123.887 6.979L123.392 7.978ZM126.83 13.108C126.35 13.108 125.942 13.018 125.606 12.838C125.276 12.658 125.024 12.409 124.85 12.091C124.676 11.773 124.589 11.407 124.589 10.993C124.589 10.597 124.691 10.24 124.895 9.922C125.099 9.604 125.372 9.352 125.714 9.166C126.056 8.974 126.437 8.878 126.857 8.878C127.421 8.878 127.883 9.043 128.243 9.373C128.609 9.697 128.846 10.168 128.954 10.786L125.894 11.758L125.615 11.074L127.829 10.327L127.568 10.444C127.52 10.288 127.433 10.153 127.307 10.039C127.187 9.919 127.004 9.859 126.758 9.859C126.572 9.859 126.407 9.904 126.263 9.994C126.125 10.078 126.017 10.201 125.939 10.363C125.867 10.519 125.831 10.705 125.831 10.921C125.831 11.167 125.876 11.374 125.966 11.542C126.056 11.704 126.179 11.827 126.335 11.911C126.491 11.995 126.665 12.037 126.857 12.037C126.995 12.037 127.127 12.013 127.253 11.965C127.385 11.917 127.514 11.854 127.64 11.776L128.198 12.712C127.988 12.832 127.76 12.928 127.514 13C127.274 13.072 127.046 13.108 126.83 13.108ZM129.87 5.899H131.13V13H129.87V5.899ZM134.362 13.108C133.882 13.108 133.474 13.018 133.138 12.838C132.808 12.658 132.556 12.409 132.382 12.091C132.208 11.773 132.121 11.407 132.121 10.993C132.121 10.597 132.223 10.24 132.427 9.922C132.631 9.604 132.904 9.352 133.246 9.166C133.588 8.974 133.969 8.878 134.389 8.878C134.953 8.878 135.415 9.043 135.775 9.373C136.141 9.697 136.378 10.168 136.486 10.786L133.426 11.758L133.147 11.074L135.361 10.327L135.1 10.444C135.052 10.288 134.965 10.153 134.839 10.039C134.719 9.919 134.536 9.859 134.29 9.859C134.104 9.859 133.939 9.904 133.795 9.994C133.657 10.078 133.549 10.201 133.471 10.363C133.399 10.519 133.363 10.705 133.363 10.921C133.363 11.167 133.408 11.374 133.498 11.542C133.588 11.704 133.711 11.827 133.867 11.911C134.023 11.995 134.197 12.037 134.389 12.037C134.527 12.037 134.659 12.013 134.785 11.965C134.917 11.917 135.046 11.854 135.172 11.776L135.73 12.712C135.52 12.832 135.292 12.928 135.046 13C134.806 13.072 134.578 13.108 134.362 13.108ZM140.741 12.649C140.567 12.787 140.348 12.898 140.084 12.982C139.826 13.066 139.571 13.108 139.319 13.108C138.869 13.108 138.476 13.027 138.14 12.865C137.81 12.697 137.552 12.46 137.366 12.154C137.186 11.842 137.096 11.467 137.096 11.029C137.096 10.591 137.195 10.219 137.393 9.913C137.591 9.601 137.849 9.364 138.167 9.202C138.491 9.04 138.83 8.959 139.184 8.959C139.538 8.959 139.844 9.007 140.102 9.103C140.366 9.199 140.591 9.325 140.777 9.481L140.165 10.291C140.081 10.225 139.964 10.159 139.814 10.093C139.67 10.021 139.499 9.985 139.301 9.985C139.127 9.985 138.968 10.03 138.824 10.12C138.68 10.21 138.566 10.333 138.482 10.489C138.398 10.645 138.356 10.825 138.356 11.029C138.356 11.221 138.401 11.398 138.491 11.56C138.581 11.722 138.704 11.851 138.86 11.947C139.022 12.037 139.211 12.082 139.427 12.082C139.565 12.082 139.691 12.064 139.805 12.028C139.925 11.986 140.027 11.929 140.111 11.857L140.741 12.649ZM141.709 9.067H142.969V13H141.709V9.067ZM141.682 7.672C141.682 7.486 141.754 7.333 141.898 7.213C142.048 7.093 142.207 7.033 142.375 7.033C142.543 7.033 142.696 7.093 142.834 7.213C142.978 7.333 143.05 7.486 143.05 7.672C143.05 7.858 142.978 8.011 142.834 8.131C142.696 8.245 142.543 8.302 142.375 8.302C142.207 8.302 142.048 8.245 141.898 8.131C141.754 8.011 141.682 7.858 141.682 7.672ZM143.96 10.984C143.96 10.582 144.053 10.222 144.239 9.904C144.431 9.586 144.698 9.337 145.04 9.157C145.382 8.971 145.775 8.878 146.219 8.878C146.669 8.878 147.059 8.971 147.389 9.157C147.719 9.337 147.971 9.586 148.145 9.904C148.325 10.222 148.415 10.582 148.415 10.984C148.415 11.386 148.325 11.749 148.145 12.073C147.971 12.391 147.719 12.643 147.389 12.829C147.059 13.015 146.663 13.108 146.201 13.108C145.769 13.108 145.382 13.024 145.04 12.856C144.704 12.688 144.44 12.445 144.248 12.127C144.056 11.809 143.96 11.428 143.96 10.984ZM145.229 10.993C145.229 11.197 145.271 11.383 145.355 11.551C145.439 11.713 145.553 11.842 145.697 11.938C145.841 12.034 146.003 12.082 146.183 12.082C146.381 12.082 146.552 12.034 146.696 11.938C146.84 11.842 146.951 11.713 147.029 11.551C147.107 11.383 147.146 11.197 147.146 10.993C147.146 10.783 147.107 10.597 147.029 10.435C146.951 10.273 146.84 10.144 146.696 10.048C146.552 9.952 146.381 9.904 146.183 9.904C146.003 9.904 145.841 9.952 145.697 10.048C145.553 10.144 145.439 10.273 145.355 10.435C145.271 10.597 145.229 10.783 145.229 10.993ZM150.551 9.067L150.65 9.769L150.632 9.706C150.77 9.46 150.965 9.262 151.217 9.112C151.469 8.956 151.778 8.878 152.144 8.878C152.516 8.878 152.825 8.989 153.071 9.211C153.323 9.427 153.452 9.709 153.458 10.057V13H152.198V10.525C152.192 10.351 152.144 10.213 152.054 10.111C151.97 10.003 151.826 9.949 151.622 9.949C151.43 9.949 151.262 10.012 151.118 10.138C150.974 10.264 150.863 10.435 150.785 10.651C150.707 10.867 150.668 11.116 150.668 11.398V13H149.408V9.067H150.551ZM156.408 13.108C156.042 13.108 155.709 13.036 155.409 12.892C155.115 12.742 154.881 12.514 154.707 12.208C154.533 11.902 154.446 11.512 154.446 11.038C154.446 10.594 154.536 10.21 154.716 9.886C154.896 9.562 155.133 9.313 155.427 9.139C155.721 8.959 156.033 8.869 156.363 8.869C156.753 8.869 157.047 8.935 157.245 9.067C157.449 9.193 157.617 9.334 157.749 9.49L157.695 9.643L157.812 9.067H158.982V13H157.722V12.145L157.821 12.415C157.809 12.415 157.773 12.451 157.713 12.523C157.653 12.589 157.563 12.67 157.443 12.766C157.329 12.856 157.185 12.934 157.011 13C156.843 13.072 156.642 13.108 156.408 13.108ZM156.768 12.082C156.918 12.082 157.053 12.061 157.173 12.019C157.293 11.971 157.398 11.905 157.488 11.821C157.578 11.731 157.656 11.62 157.722 11.488V10.525C157.674 10.393 157.602 10.282 157.506 10.192C157.41 10.096 157.296 10.024 157.164 9.976C157.032 9.922 156.885 9.895 156.723 9.895C156.543 9.895 156.375 9.943 156.219 10.039C156.069 10.129 155.949 10.255 155.859 10.417C155.769 10.579 155.724 10.765 155.724 10.975C155.724 11.185 155.772 11.374 155.868 11.542C155.964 11.71 156.09 11.842 156.246 11.938C156.408 12.034 156.582 12.082 156.768 12.082ZM161.882 13.108C161.516 13.108 161.189 13.024 160.901 12.856C160.613 12.682 160.385 12.433 160.217 12.109C160.055 11.785 159.974 11.401 159.974 10.957C159.974 10.513 160.064 10.135 160.244 9.823C160.424 9.511 160.67 9.274 160.982 9.112C161.294 8.95 161.648 8.869 162.044 8.869C162.296 8.869 162.536 8.908 162.764 8.986C162.998 9.064 163.193 9.184 163.349 9.346V9.742V5.899H164.6V13H163.34V12.235L163.439 12.505C163.235 12.673 163.007 12.817 162.755 12.937C162.503 13.051 162.212 13.108 161.882 13.108ZM162.296 12.046C162.464 12.046 162.611 12.025 162.737 11.983C162.869 11.935 162.983 11.869 163.079 11.785C163.181 11.695 163.268 11.584 163.34 11.452V10.489C163.292 10.357 163.217 10.246 163.115 10.156C163.019 10.06 162.899 9.988 162.755 9.94C162.617 9.886 162.464 9.859 162.296 9.859C162.11 9.859 161.936 9.907 161.774 10.003C161.618 10.093 161.492 10.219 161.396 10.381C161.3 10.543 161.252 10.729 161.252 10.939C161.252 11.149 161.3 11.338 161.396 11.506C161.492 11.674 161.618 11.806 161.774 11.902C161.936 11.998 162.11 12.046 162.296 12.046ZM165.59 10.984C165.59 10.582 165.683 10.222 165.869 9.904C166.061 9.586 166.328 9.337 166.67 9.157C167.012 8.971 167.405 8.878 167.849 8.878C168.299 8.878 168.689 8.971 169.019 9.157C169.349 9.337 169.601 9.586 169.775 9.904C169.955 10.222 170.045 10.582 170.045 10.984C170.045 11.386 169.955 11.749 169.775 12.073C169.601 12.391 169.349 12.643 169.019 12.829C168.689 13.015 168.293 13.108 167.831 13.108C167.399 13.108 167.012 13.024 166.67 12.856C166.334 12.688 166.07 12.445 165.878 12.127C165.686 11.809 165.59 11.428 165.59 10.984ZM166.859 10.993C166.859 11.197 166.901 11.383 166.985 11.551C167.069 11.713 167.183 11.842 167.327 11.938C167.471 12.034 167.633 12.082 167.813 12.082C168.011 12.082 168.182 12.034 168.326 11.938C168.47 11.842 168.581 11.713 168.659 11.551C168.737 11.383 168.776 11.197 168.776 10.993C168.776 10.783 168.737 10.597 168.659 10.435C168.581 10.273 168.47 10.144 168.326 10.048C168.182 9.952 168.011 9.904 167.813 9.904C167.633 9.904 167.471 9.952 167.327 10.048C167.183 10.144 167.069 10.273 166.985 10.435C166.901 10.597 166.859 10.783 166.859 10.993Z" fill="black"/>
<rect width="68.7824" height="21" rx="10.5" fill="#D9D9D9"/>
<path d="M16.1744 8.978C15.9224 8.84 15.6644 8.726 15.4004 8.636C15.1424 8.546 14.8994 8.501 14.6714 8.501C14.3894 8.501 14.1674 8.558 14.0054 8.672C13.8434 8.786 13.7624 8.957 13.7624 9.185C13.7624 9.341 13.8224 9.482 13.9424 9.608C14.0684 9.728 14.2274 9.836 14.4194 9.932C14.6174 10.028 14.8214 10.115 15.0314 10.193C15.2234 10.265 15.4124 10.352 15.5984 10.454C15.7904 10.55 15.9614 10.673 16.1114 10.823C16.2614 10.967 16.3814 11.15 16.4714 11.372C16.5614 11.588 16.6064 11.855 16.6064 12.173C16.6064 12.509 16.5194 12.821 16.3454 13.109C16.1714 13.397 15.9164 13.631 15.5804 13.811C15.2444 13.985 14.8304 14.072 14.3384 14.072C14.0864 14.072 13.8284 14.048 13.5644 14C13.3064 13.946 13.0514 13.868 12.7994 13.766C12.5474 13.658 12.3044 13.523 12.0704 13.361L12.6464 12.344C12.8024 12.458 12.9704 12.56 13.1504 12.65C13.3364 12.734 13.5224 12.8 13.7084 12.848C13.8944 12.896 14.0654 12.92 14.2214 12.92C14.3774 12.92 14.5334 12.899 14.6894 12.857C14.8514 12.809 14.9834 12.731 15.0854 12.623C15.1934 12.515 15.2474 12.365 15.2474 12.173C15.2474 12.041 15.2024 11.921 15.1124 11.813C15.0284 11.705 14.9114 11.606 14.7614 11.516C14.6174 11.426 14.4584 11.348 14.2844 11.282C14.0804 11.204 13.8704 11.114 13.6544 11.012C13.4384 10.91 13.2344 10.787 13.0424 10.643C12.8564 10.493 12.7034 10.31 12.5834 10.094C12.4694 9.872 12.4124 9.602 12.4124 9.284C12.4124 8.9 12.4964 8.567 12.6644 8.285C12.8384 8.003 13.0814 7.781 13.3934 7.619C13.7054 7.451 14.0654 7.358 14.4734 7.34C15.0074 7.34 15.4394 7.403 15.7694 7.529C16.1054 7.655 16.4054 7.805 16.6694 7.979L16.1744 8.978ZM19.6124 14.108C19.1324 14.108 18.7244 14.018 18.3884 13.838C18.0584 13.658 17.8064 13.409 17.6324 13.091C17.4584 12.773 17.3714 12.407 17.3714 11.993C17.3714 11.597 17.4734 11.24 17.6774 10.922C17.8814 10.604 18.1544 10.352 18.4964 10.166C18.8384 9.974 19.2194 9.878 19.6394 9.878C20.2034 9.878 20.6654 10.043 21.0254 10.373C21.3914 10.697 21.6284 11.168 21.7364 11.786L18.6764 12.758L18.3974 12.074L20.6114 11.327L20.3504 11.444C20.3024 11.288 20.2154 11.153 20.0894 11.039C19.9694 10.919 19.7864 10.859 19.5404 10.859C19.3544 10.859 19.1894 10.904 19.0454 10.994C18.9074 11.078 18.7994 11.201 18.7214 11.363C18.6494 11.519 18.6134 11.705 18.6134 11.921C18.6134 12.167 18.6584 12.374 18.7484 12.542C18.8384 12.704 18.9614 12.827 19.1174 12.911C19.2734 12.995 19.4474 13.037 19.6394 13.037C19.7774 13.037 19.9094 13.013 20.0354 12.965C20.1674 12.917 20.2964 12.854 20.4224 12.776L20.9804 13.712C20.7704 13.832 20.5424 13.928 20.2964 14C20.0564 14.072 19.8284 14.108 19.6124 14.108ZM22.6521 6.899H23.9121V14H22.6521V6.899ZM27.1447 14.108C26.6647 14.108 26.2567 14.018 25.9207 13.838C25.5907 13.658 25.3387 13.409 25.1647 13.091C24.9907 12.773 24.9037 12.407 24.9037 11.993C24.9037 11.597 25.0057 11.24 25.2097 10.922C25.4137 10.604 25.6867 10.352 26.0287 10.166C26.3707 9.974 26.7517 9.878 27.1717 9.878C27.7357 9.878 28.1977 10.043 28.5577 10.373C28.9237 10.697 29.1607 11.168 29.2687 11.786L26.2087 12.758L25.9297 12.074L28.1437 11.327L27.8827 11.444C27.8347 11.288 27.7477 11.153 27.6217 11.039C27.5017 10.919 27.3187 10.859 27.0727 10.859C26.8867 10.859 26.7217 10.904 26.5777 10.994C26.4397 11.078 26.3317 11.201 26.2537 11.363C26.1817 11.519 26.1457 11.705 26.1457 11.921C26.1457 12.167 26.1907 12.374 26.2807 12.542C26.3707 12.704 26.4937 12.827 26.6497 12.911C26.8057 12.995 26.9797 13.037 27.1717 13.037C27.3097 13.037 27.4417 13.013 27.5677 12.965C27.6997 12.917 27.8287 12.854 27.9547 12.776L28.5127 13.712C28.3027 13.832 28.0747 13.928 27.8287 14C27.5887 14.072 27.3607 14.108 27.1447 14.108ZM33.5233 13.649C33.3493 13.787 33.1303 13.898 32.8663 13.982C32.6083 14.066 32.3533 14.108 32.1013 14.108C31.6513 14.108 31.2583 14.027 30.9223 13.865C30.5923 13.697 30.3343 13.46 30.1483 13.154C29.9683 12.842 29.8783 12.467 29.8783 12.029C29.8783 11.591 29.9773 11.219 30.1753 10.913C30.3733 10.601 30.6313 10.364 30.9493 10.202C31.2733 10.04 31.6123 9.959 31.9663 9.959C32.3203 9.959 32.6263 10.007 32.8843 10.103C33.1483 10.199 33.3733 10.325 33.5593 10.481L32.9473 11.291C32.8633 11.225 32.7463 11.159 32.5963 11.093C32.4523 11.021 32.2813 10.985 32.0833 10.985C31.9093 10.985 31.7503 11.03 31.6063 11.12C31.4623 11.21 31.3483 11.333 31.2643 11.489C31.1803 11.645 31.1383 11.825 31.1383 12.029C31.1383 12.221 31.1833 12.398 31.2733 12.56C31.3633 12.722 31.4863 12.851 31.6423 12.947C31.8043 13.037 31.9933 13.082 32.2093 13.082C32.3473 13.082 32.4733 13.064 32.5873 13.028C32.7073 12.986 32.8093 12.929 32.8933 12.857L33.5233 13.649ZM34.4909 10.067H35.7509V14H34.4909V10.067ZM34.4639 8.672C34.4639 8.486 34.5359 8.333 34.6799 8.213C34.8299 8.093 34.9889 8.033 35.1569 8.033C35.3249 8.033 35.4779 8.093 35.6159 8.213C35.7599 8.333 35.8319 8.486 35.8319 8.672C35.8319 8.858 35.7599 9.011 35.6159 9.131C35.4779 9.245 35.3249 9.302 35.1569 9.302C34.9889 9.302 34.8299 9.245 34.6799 9.131C34.5359 9.011 34.4639 8.858 34.4639 8.672ZM36.7425 11.984C36.7425 11.582 36.8355 11.222 37.0215 10.904C37.2135 10.586 37.4805 10.337 37.8225 10.157C38.1645 9.971 38.5575 9.878 39.0015 9.878C39.4515 9.878 39.8415 9.971 40.1715 10.157C40.5015 10.337 40.7535 10.586 40.9275 10.904C41.1075 11.222 41.1975 11.582 41.1975 11.984C41.1975 12.386 41.1075 12.749 40.9275 13.073C40.7535 13.391 40.5015 13.643 40.1715 13.829C39.8415 14.015 39.4455 14.108 38.9835 14.108C38.5515 14.108 38.1645 14.024 37.8225 13.856C37.4865 13.688 37.2225 13.445 37.0305 13.127C36.8385 12.809 36.7425 12.428 36.7425 11.984ZM38.0115 11.993C38.0115 12.197 38.0535 12.383 38.1375 12.551C38.2215 12.713 38.3355 12.842 38.4795 12.938C38.6235 13.034 38.7855 13.082 38.9655 13.082C39.1635 13.082 39.3345 13.034 39.4785 12.938C39.6225 12.842 39.7335 12.713 39.8115 12.551C39.8895 12.383 39.9285 12.197 39.9285 11.993C39.9285 11.783 39.8895 11.597 39.8115 11.435C39.7335 11.273 39.6225 11.144 39.4785 11.048C39.3345 10.952 39.1635 10.904 38.9655 10.904C38.7855 10.904 38.6235 10.952 38.4795 11.048C38.3355 11.144 38.2215 11.273 38.1375 11.435C38.0535 11.597 38.0115 11.783 38.0115 11.993ZM43.3331 10.067L43.4321 10.769L43.4141 10.706C43.5521 10.46 43.7471 10.262 43.9991 10.112C44.2511 9.956 44.5601 9.878 44.9261 9.878C45.2981 9.878 45.6071 9.989 45.8531 10.211C46.1051 10.427 46.2341 10.709 46.2401 11.057V14H44.9801V11.525C44.9741 11.351 44.9261 11.213 44.8361 11.111C44.7521 11.003 44.6081 10.949 44.4041 10.949C44.2121 10.949 44.0441 11.012 43.9001 11.138C43.7561 11.264 43.6451 11.435 43.5671 11.651C43.4891 11.867 43.4501 12.116 43.4501 12.398V14H42.1901V10.067H43.3331ZM49.1899 14.108C48.8239 14.108 48.4909 14.036 48.1909 13.892C47.8969 13.742 47.6629 13.514 47.4889 13.208C47.3149 12.902 47.2279 12.512 47.2279 12.038C47.2279 11.594 47.3179 11.21 47.4979 10.886C47.6779 10.562 47.9149 10.313 48.2089 10.139C48.5029 9.959 48.8149 9.869 49.1449 9.869C49.5349 9.869 49.8289 9.935 50.0269 10.067C50.2309 10.193 50.3989 10.334 50.5309 10.49L50.4769 10.643L50.5939 10.067H51.7639V14H50.5039V13.145L50.6029 13.415C50.5909 13.415 50.5549 13.451 50.4949 13.523C50.4349 13.589 50.3449 13.67 50.2249 13.766C50.1109 13.856 49.9669 13.934 49.7929 14C49.6249 14.072 49.4239 14.108 49.1899 14.108ZM49.5499 13.082C49.6999 13.082 49.8349 13.061 49.9549 13.019C50.0749 12.971 50.1799 12.905 50.2699 12.821C50.3599 12.731 50.4379 12.62 50.5039 12.488V11.525C50.4559 11.393 50.3839 11.282 50.2879 11.192C50.1919 11.096 50.0779 11.024 49.9459 10.976C49.8139 10.922 49.6669 10.895 49.5049 10.895C49.3249 10.895 49.1569 10.943 49.0009 11.039C48.8509 11.129 48.7309 11.255 48.6409 11.417C48.5509 11.579 48.5059 11.765 48.5059 11.975C48.5059 12.185 48.5539 12.374 48.6499 12.542C48.7459 12.71 48.8719 12.842 49.0279 12.938C49.1899 13.034 49.3639 13.082 49.5499 13.082ZM54.1962 10.067L54.3132 11.147L54.2862 10.985C54.4002 10.751 54.5562 10.553 54.7542 10.391C54.9522 10.223 55.1472 10.094 55.3392 10.004C55.5372 9.914 55.6872 9.869 55.7892 9.869L55.7262 11.129C55.4322 11.093 55.1802 11.141 54.9702 11.273C54.7602 11.405 54.5982 11.579 54.4842 11.795C54.3702 12.011 54.3132 12.233 54.3132 12.461V14H53.0622V10.067H54.1962Z" fill="black"/>
<path d="M83.486 9.39H85.178V10.488H83.486V9.39ZM86.237 9.39H87.929V10.488H86.237V9.39ZM88.988 9.39H90.68V10.488H88.988V9.39ZM91.9729 10.758L93.5659 9.813L91.9729 8.868V7.509L95.9779 9.813L91.9729 12.126V10.758Z" fill="black"/>
</svg>
